M48
METRIC
VER,1
FMAT,2
T01C0.4
T02C0.5
T03C0.7
T04C0.8
T05C0.8
T06C0.9
T07C0.9
T08C0.9
T09C1.
T10C1.1
%
T01
X000229Y000203
X000737Y000178
X000914Y000178
X001803Y000813
X002007Y000813
X000254Y001016
X000254Y001270
X000178Y001448
X001029Y002413
X000165Y003670
X000254Y004953
X002570Y005268
X002794Y004318
X003048Y004318
X003302Y004318
X003556Y004318
X003810Y004318
X004445Y004394
X004445Y004572
X004826Y004267
X005080Y004318
X005334Y004318
X004318Y005080
X004318Y003048
X004572Y003048
X005588Y002794
X003810Y002286
X003810Y002032
X003810Y001778
X003810Y001524
X003810Y001270
X003810Y001016
X003734Y000838
X004026Y000597
X005080Y000508
X005334Y000508
X005588Y000508
X006350Y000508
X006020Y001143
X006680Y001321
T02
X004223Y002540
X004445Y003175
X003810Y003429
X004445Y004185
X004089Y004305
X004865Y004413
X004865Y004724
X005969Y004750
X006058Y004445
X006401Y004597
X006452Y003861
X002896Y004699
X002642Y004727
X002477Y004318
X002635Y004223
X002223Y004191
X002223Y003969
X001651Y004223
X001365Y004413
X001778Y004620
X000787Y005055
X000889Y003912
X000457Y002134
X000699Y001905
X000191Y001873
X000584Y001473
X000857Y001010
X001499Y000660
X001365Y000445
X001715Y000508
X000972Y000413
X003810Y000699
X003912Y000470
T03
X004826Y000254
T04
X004064Y000762
X004826Y003810
X004826Y004064
X001524Y004064
T05
X001270Y003810
X000508Y003810
X000381Y003556
X000381Y003302
X001016Y003099
X001016Y002743
X001016Y002083
X001016Y001727
X000381Y001778
X000381Y001524
X000508Y001270
X001270Y001270
X005131Y002299
X005131Y002781
X000203Y003835
X000203Y004089
X000203Y004343
X000203Y004597
T06
X002286Y003556
X002286Y003302
X002540Y003302
X002794Y003302
X003048Y003302
X003302Y003302
X003556Y003302
X003556Y003048
X003810Y003048
X004064Y003048
X003810Y002540
X004064Y002032
X004826Y002032
X005334Y002032
X005588Y002032
X005842Y002032
X006096Y002032
X006350Y002032
X006350Y002286
X006604Y002286
X006350Y002540
X006350Y002794
X006096Y002794
X006096Y002540
X006096Y002286
X006096Y003048
X005842Y003048
X005588Y003048
X004826Y003048
X005080Y003810
X005334Y003810
X006350Y003048
X006604Y003302
X006604Y003556
X003302Y003048
X003048Y003048
X002794Y003048
X002540Y003048
X002286Y003048
X001524Y001270
X001524Y001016
X002286Y000762
X002540Y000762
X002794Y000762
X003048Y000762
X003302Y000762
X003556Y000762
X004185Y000508
X004572Y000762
X004826Y000762
X005080Y000762
X005334Y000762
X005588Y000762
X005588Y001016
X005334Y001016
X005334Y001270
X005588Y001270
X005080Y001270
X004826Y001270
X004826Y001016
X005080Y001016
X004693Y000508
T07
X001270Y000191
X000508Y000191
X001270Y001016
T08
X000446Y002765
X000446Y002415
T09
X006096Y000254
X005842Y000254
X005588Y000254
X005334Y000254
X005080Y000254
X004572Y000254
X004318Y000254
X004064Y000254
X003810Y000254
X003556Y000254
X003302Y000254
X002826Y000286
X002572Y000286
X002318Y000286
X002064Y000286
X001810Y000286
X001556Y000286
X004064Y001524
X004318Y001524
X004572Y001524
X004826Y001524
X005080Y001524
X005334Y001524
X005588Y001524
X005842Y001524
X006096Y001524
X006350Y001524
X006350Y001778
X006096Y001778
X005842Y001778
X005588Y001778
X005334Y001778
X005080Y001778
X004826Y001778
X004572Y001778
X004318Y001778
X004064Y001778
X004191Y002286
X004445Y002286
X004699Y002286
X004699Y002794
X004445Y002794
X004191Y002794
X004318Y003302
X004064Y003302
X004064Y003556
X004318Y003556
X004572Y003556
X004826Y003556
X005080Y003556
X005334Y003556
X005588Y003556
X005842Y003556
X006096Y003556
X006350Y003556
X006350Y003302
X006096Y003302
X005842Y003302
X005588Y003302
X005334Y003302
X005080Y003302
X004826Y003302
X004572Y003302
X005588Y002642
X005588Y002388
X006668Y002032
X006668Y001778
X006668Y001524
X006350Y000254
X002032Y002794
X001778Y002794
X001778Y003048
X002032Y003048
X002032Y003302
X001778Y003302
X001778Y003556
X002032Y003556
X002032Y003810
X001778Y003810
X001778Y004064
X002032Y004064
X001595Y004727
X001842Y004921
X002096Y004921
X002388Y005080
X002642Y005080
X002896Y005080
X003150Y005080
X003404Y005080
X003658Y005080
X003912Y005080
X004166Y005080
X004572Y005080
X004826Y005080
X005080Y005080
X005334Y005080
X005588Y005080
X005842Y005080
X006096Y005080
X006350Y005080
X002096Y005175
X001842Y005175
X001595Y005179
X000945Y005179
X000508Y004826
X000508Y004572
X000508Y004318
X000508Y004064
X000945Y004727
T10
X000508Y005112
X000254Y005112
X001524Y003810
X001524Y003556
X001270Y003556
X001270Y003302
X001524Y003302
X001524Y003048
X001524Y002794
X001524Y002540
X001778Y002540
X002032Y002540
X002286Y002540
X002540Y002540
X002794Y002540
X003048Y002540
X003302Y002540
X003556Y002540
X003556Y002794
X003810Y002794
X003302Y002794
X003048Y002794
X002794Y002794
X002540Y002794
X002286Y002794
X002286Y002286
X002032Y002286
X002032Y002032
X002286Y002032
X002540Y002032
X002794Y002032
X003048Y002032
X003302Y002032
X003556Y002032
X003556Y002286
X003302Y002286
X003048Y002286
X002794Y002286
X002540Y002286
X002540Y001778
X002794Y001778
X003048Y001778
X003302Y001778
X003556Y001778
X003556Y001524
X003302Y001524
X003048Y001524
X002794Y001524
X002540Y001524
X002286Y001524
X002032Y001524
X002032Y001778
X002286Y001778
X001778Y001778
X001524Y001778
X001524Y001524
X001778Y001524
X001778Y001270
X002032Y001270
X002286Y001270
X002540Y001270
X002794Y001270
X003048Y001270
X003302Y001270
X003556Y001270
X003556Y001016
X003302Y001016
X003048Y001016
X002794Y001016
X002540Y001016
X002286Y001016
X002032Y001016
X001778Y001016
X001270Y001524
X001270Y001778
X001270Y002032
X001524Y002032
X001778Y002032
X001778Y002286
X001524Y002286
X001270Y002286
X001270Y002540
X001270Y002794
X002540Y003556
X002794Y003556
X003048Y003556
X003302Y003556
X003556Y003556
X003556Y003810
X003810Y003810
X003810Y004064
X003556Y004064
X003302Y004064
X003048Y004064
X002794Y004064
X002540Y004064
X002540Y003810
X002794Y003810
X003048Y003810
X003302Y003810
X005080Y004064
X005334Y004064
X005588Y004064
X005842Y004064
X006096Y004064
X005842Y003810
X005588Y003810
X005588Y004318
X006604Y003048
X006604Y002794
X006604Y002540
X005842Y002540
X005842Y002794
X005842Y002286
X004572Y001270
X004572Y001016
X004318Y001016
X004064Y001016
X004064Y001270
X004318Y001270
X004318Y000762
X003048Y000254
X006350Y000762
X006350Y001016
M30
